<svg width="512" height="512" viewBox="0 0 512 512" fill="none" xmlns="http://www.w3.org/2000/svg">
<path d="M293.873 253.221V236.66C293.873 235.515 293.278 234.92 292.087 234.874H268.036C267.166 234.92 266.41 235.309 265.769 236.042C265.127 236.729 264.646 237.554 264.326 238.516C264.051 239.432 263.913 240.371 263.913 241.333C263.913 242.249 264.051 243.188 264.326 244.15C264.646 245.067 265.127 245.891 265.769 246.624C266.41 247.311 267.166 247.655 268.036 247.655H285.628C286.91 247.655 287.987 248.113 288.857 249.029C289.773 249.9 290.231 250.976 290.231 252.259C290.231 253.542 289.773 254.618 288.857 255.488C287.987 256.405 286.91 256.863 285.628 256.863H268.311C265.104 256.817 262.447 255.924 260.34 254.183C258.279 252.396 256.79 250.404 255.874 248.205C255.003 245.96 254.568 243.646 254.568 241.264C254.568 238.974 255.026 236.729 255.942 234.53C256.859 232.286 258.347 230.293 260.409 228.552C262.47 226.765 265.517 225.803 269.548 225.666H298.409C299.691 225.666 300.791 226.101 301.707 226.972C302.623 227.796 303.104 228.85 303.15 230.132V253.221C303.15 254.504 302.669 255.58 301.707 256.45C300.791 257.275 299.691 257.687 298.409 257.687C295.66 257.458 294.148 255.969 293.873 253.221Z" fill="white"/>
<path d="M336.518 256.863C332.487 256.725 329.441 255.786 327.379 254.045C325.318 252.259 323.829 250.266 322.913 248.067C321.996 245.822 321.538 243.555 321.538 241.264C321.538 238.882 321.973 236.592 322.844 234.393C323.76 232.148 325.249 230.155 327.31 228.415C329.418 226.628 332.075 225.712 335.281 225.666H361.393C362.676 225.666 363.752 226.124 364.623 227.04C365.539 227.911 365.997 228.987 365.997 230.27C365.997 231.553 365.539 232.652 364.623 233.568C363.752 234.439 362.676 234.874 361.393 234.874H335.006C334.136 234.874 333.38 235.24 332.739 235.973C332.098 236.66 331.617 237.485 331.296 238.447C331.021 239.363 330.884 240.279 330.884 241.196C330.884 242.158 331.021 243.12 331.296 244.082C331.617 244.998 332.098 245.822 332.739 246.555C333.38 247.243 334.136 247.609 335.006 247.655H361.393C362.676 247.655 363.752 248.113 364.623 249.029C365.539 249.9 365.997 250.976 365.997 252.259C365.997 253.542 365.539 254.618 364.623 255.488C363.752 256.405 362.676 256.863 361.393 256.863H336.518Z" fill="white"/>
<path d="M422.179 253.221V236.66C422.179 235.515 421.583 234.92 420.392 234.874H396.342C395.472 234.92 394.716 235.309 394.074 236.042C393.433 236.729 392.952 237.554 392.631 238.516C392.356 239.432 392.219 240.371 392.219 241.333C392.219 242.249 392.356 243.188 392.631 244.15C392.952 245.067 393.433 245.891 394.074 246.624C394.716 247.311 395.472 247.655 396.342 247.655H413.933C415.216 247.655 416.292 248.113 417.163 249.029C418.079 249.9 418.537 250.976 418.537 252.259C418.537 253.542 418.079 254.618 417.163 255.488C416.292 256.405 415.216 256.863 413.933 256.863H396.617C393.41 256.817 390.753 255.924 388.646 254.183C386.584 252.396 385.096 250.404 384.179 248.205C383.309 245.96 382.874 243.646 382.874 241.264C382.874 238.974 383.332 236.729 384.248 234.53C385.164 232.286 386.653 230.293 388.715 228.552C390.776 226.765 393.822 225.803 397.854 225.666H426.714C427.997 225.666 429.096 226.101 430.013 226.972C430.929 227.796 431.41 228.85 431.456 230.132V253.221C431.456 254.504 430.975 255.58 430.013 256.45C429.096 257.275 427.997 257.687 426.714 257.687C423.966 257.458 422.454 255.969 422.179 253.221Z" fill="white"/>
<path d="M203.464 215.221C204.747 215.221 205.846 215.656 206.762 216.527C207.678 217.351 208.16 218.405 208.205 219.688V225.666H231.569C232.851 225.666 233.951 226.101 234.867 226.972C235.737 227.888 236.173 228.987 236.173 230.27C236.173 231.553 235.714 232.652 234.798 233.568C233.928 234.439 232.851 234.874 231.569 234.874H208.205V236.248C208.16 238.126 208.274 239.867 208.549 241.471C208.87 243.028 209.603 244.425 210.748 245.662C211.893 246.899 213.336 247.563 215.077 247.655H231.843C233.126 247.701 234.18 248.182 235.004 249.098C235.875 250.014 236.31 251.114 236.31 252.396C236.264 253.633 235.806 254.687 234.936 255.557C234.111 256.382 233.08 256.817 231.843 256.863H212.741C209.534 256.68 206.877 255.603 204.77 253.633C202.708 251.617 201.219 249.167 200.303 246.281C199.433 243.395 198.975 240.325 198.929 237.073V234.874V225.666V219.688C198.975 218.451 199.433 217.42 200.303 216.596C201.173 215.725 202.227 215.267 203.464 215.221Z" fill="white"/>
<path fill-rule="evenodd" clip-rule="evenodd" d="M179.24 231.353C178.37 230.483 177.316 230.025 176.079 229.979C174.797 229.979 173.697 230.414 172.781 231.284C171.865 232.109 171.384 233.163 171.338 234.445V253.221C171.338 254.504 171.796 255.58 172.712 256.45C173.674 257.275 174.797 257.687 176.079 257.687C178.828 257.458 180.34 255.969 180.615 253.221V234.445C180.569 233.208 180.111 232.178 179.24 231.353Z" fill="white"/>
<path d="M170.351 220.133C170.351 218.85 170.9 217.751 172 216.835C173.099 215.918 174.428 215.46 175.985 215.46C177.543 215.46 178.871 215.918 179.971 216.835C181.07 217.751 181.62 218.85 181.62 220.133C181.62 221.461 181.07 222.584 179.971 223.5C178.871 224.416 177.543 224.874 175.985 224.874C174.428 224.874 173.099 224.416 172 223.5C170.9 222.584 170.351 221.461 170.351 220.133Z" fill="#FA4402"/>
<path d="M170.968 298V267.298H180.968C182.591 267.298 184.06 267.693 185.376 268.482C186.692 269.257 187.73 270.317 188.49 271.662C189.265 273.007 189.653 274.513 189.653 276.18C189.653 277.729 189.324 279.126 188.666 280.368C188.023 281.611 187.145 282.634 186.034 283.438C184.923 284.228 183.68 284.725 182.306 284.93L189.85 298H187.109L179.609 285.083H173.337V298H170.968ZM173.337 282.715H180.815C181.999 282.715 183.081 282.43 184.06 281.859C185.04 281.275 185.822 280.485 186.407 279.491C186.992 278.497 187.284 277.364 187.284 276.092C187.284 274.835 186.992 273.709 186.407 272.715C185.822 271.706 185.04 270.916 184.06 270.346C183.081 269.761 181.999 269.469 180.815 269.469H173.337V282.715ZM217.028 298.57C214.952 298.57 213 298.161 211.173 297.342C209.345 296.509 207.737 295.361 206.348 293.899C204.959 292.437 203.87 290.748 203.081 288.833C202.291 286.903 201.896 284.842 201.896 282.649C201.896 280.456 202.291 278.402 203.081 276.487C203.87 274.557 204.959 272.861 206.348 271.399C207.737 269.937 209.345 268.796 211.173 267.978C213 267.144 214.952 266.728 217.028 266.728C219.119 266.728 221.078 267.144 222.905 267.978C224.733 268.796 226.341 269.937 227.73 271.399C229.119 272.861 230.201 274.557 230.976 276.487C231.765 278.402 232.16 280.456 232.16 282.649C232.16 284.842 231.765 286.903 230.976 288.833C230.201 290.748 229.119 292.437 227.73 293.899C226.341 295.361 224.733 296.509 222.905 297.342C221.078 298.161 219.119 298.57 217.028 298.57ZM217.028 296.202C218.812 296.202 220.471 295.844 222.006 295.127C223.556 294.411 224.908 293.431 226.063 292.189C227.233 290.931 228.147 289.484 228.805 287.846C229.463 286.209 229.791 284.476 229.791 282.649C229.791 280.792 229.455 279.045 228.783 277.408C228.125 275.77 227.211 274.33 226.041 273.087C224.872 271.845 223.519 270.873 221.984 270.171C220.449 269.454 218.797 269.096 217.028 269.096C215.245 269.096 213.578 269.454 212.028 270.171C210.493 270.887 209.141 271.874 207.971 273.131C206.816 274.374 205.91 275.814 205.252 277.452C204.594 279.089 204.265 280.821 204.265 282.649C204.265 284.506 204.594 286.253 205.252 287.89C205.924 289.528 206.845 290.975 208.015 292.232C209.185 293.475 210.537 294.447 212.072 295.149C213.622 295.851 215.274 296.202 217.028 296.202ZM245.073 298V267.298H255.183C256.645 267.298 257.968 267.598 259.152 268.197C260.351 268.782 261.301 269.644 262.003 270.785C262.719 271.911 263.078 273.299 263.078 274.952C263.078 275.946 262.895 276.881 262.529 277.759C262.164 278.621 261.696 279.352 261.126 279.952C260.556 280.536 259.971 280.895 259.371 281.026C260.263 281.275 261.045 281.684 261.718 282.254C262.39 282.81 262.953 283.475 263.406 284.25C263.86 285.01 264.196 285.822 264.415 286.684C264.635 287.547 264.744 288.409 264.744 289.272C264.744 291.041 264.371 292.583 263.626 293.899C262.895 295.2 261.915 296.209 260.687 296.925C259.459 297.642 258.092 298 256.586 298H245.073ZM247.441 295.829H256.433C257.558 295.829 258.582 295.537 259.503 294.952C260.424 294.352 261.155 293.541 261.696 292.517C262.251 291.479 262.529 290.31 262.529 289.009C262.529 287.839 262.251 286.743 261.696 285.719C261.155 284.696 260.424 283.87 259.503 283.241C258.582 282.598 257.558 282.276 256.433 282.276H247.441V295.829ZM247.441 280.127H255.029C256.594 280.127 257.931 279.681 259.042 278.789C260.154 277.883 260.709 276.596 260.709 274.93C260.709 273.073 260.154 271.699 259.042 270.807C257.931 269.915 256.594 269.469 255.029 269.469H247.441V280.127ZM291.99 298.57C289.914 298.57 287.962 298.161 286.134 297.342C284.307 296.509 282.699 295.361 281.31 293.899C279.921 292.437 278.832 290.748 278.042 288.833C277.253 286.903 276.858 284.842 276.858 282.649C276.858 280.456 277.253 278.402 278.042 276.487C278.832 274.557 279.921 272.861 281.31 271.399C282.699 269.937 284.307 268.796 286.134 267.978C287.962 267.144 289.914 266.728 291.99 266.728C294.08 266.728 296.039 267.144 297.867 267.978C299.694 268.796 301.303 269.937 302.691 271.399C304.08 272.861 305.162 274.557 305.937 276.487C306.727 278.402 307.121 280.456 307.121 282.649C307.121 284.842 306.727 286.903 305.937 288.833C305.162 290.748 304.08 292.437 302.691 293.899C301.303 295.361 299.694 296.509 297.867 297.342C296.039 298.161 294.08 298.57 291.99 298.57ZM291.99 296.202C293.773 296.202 295.433 295.844 296.968 295.127C298.517 294.411 299.87 293.431 301.025 292.189C302.194 290.931 303.108 289.484 303.766 287.846C304.424 286.209 304.753 284.476 304.753 282.649C304.753 280.792 304.417 279.045 303.744 277.408C303.086 275.77 302.172 274.33 301.003 273.087C299.833 271.845 298.481 270.873 296.946 270.171C295.411 269.454 293.759 269.096 291.99 269.096C290.206 269.096 288.539 269.454 286.99 270.171C285.454 270.887 284.102 271.874 282.932 273.131C281.777 274.374 280.871 275.814 280.213 277.452C279.555 279.089 279.226 280.821 279.226 282.649C279.226 284.506 279.555 286.253 280.213 287.89C280.886 289.528 281.807 290.975 282.976 292.232C284.146 293.475 285.498 294.447 287.033 295.149C288.583 295.851 290.235 296.202 291.99 296.202ZM341.288 267.298V269.666H330.411V298H328.042V269.666H317.187V267.298H341.288ZM354.682 298V267.298H357.051V298H354.682ZM385.52 298.57C383.444 298.57 381.492 298.161 379.665 297.342C377.837 296.509 376.229 295.368 374.84 293.921C373.466 292.459 372.384 290.763 371.595 288.833C370.82 286.903 370.432 284.842 370.432 282.649C370.432 280.456 370.82 278.395 371.595 276.465C372.384 274.535 373.466 272.846 374.84 271.399C376.229 269.937 377.837 268.796 379.665 267.978C381.492 267.144 383.444 266.728 385.52 266.728C388.006 266.728 390.294 267.305 392.384 268.46C394.475 269.615 396.207 271.15 397.582 273.066L395.498 274.206C394.343 272.642 392.874 271.399 391.09 270.478C389.321 269.557 387.465 269.096 385.52 269.096C383.737 269.096 382.077 269.454 380.542 270.171C379.007 270.887 377.655 271.874 376.485 273.131C375.33 274.374 374.424 275.814 373.766 277.452C373.122 279.089 372.801 280.821 372.801 282.649C372.801 284.52 373.13 286.275 373.788 287.912C374.446 289.535 375.359 290.975 376.529 292.232C377.698 293.475 379.051 294.447 380.586 295.149C382.121 295.851 383.766 296.202 385.52 296.202C387.552 296.202 389.438 295.734 391.178 294.798C392.933 293.863 394.373 292.642 395.498 291.136L397.582 292.254C396.207 294.17 394.475 295.705 392.384 296.86C390.294 298 388.006 298.57 385.52 298.57ZM421.375 298.57C419.752 298.57 418.181 298.322 416.66 297.825C415.14 297.313 413.809 296.596 412.669 295.675C411.543 294.74 410.754 293.621 410.3 292.32L412.515 291.487C412.866 292.481 413.502 293.336 414.423 294.053C415.359 294.754 416.434 295.288 417.647 295.653C418.875 296.019 420.118 296.202 421.375 296.202C422.866 296.202 424.263 295.946 425.564 295.434C426.865 294.922 427.918 294.213 428.722 293.307C429.526 292.386 429.928 291.297 429.928 290.039C429.928 288.782 429.511 287.751 428.678 286.947C427.844 286.129 426.77 285.485 425.454 285.017C424.153 284.535 422.793 284.162 421.375 283.899C419.299 283.533 417.442 283.051 415.805 282.452C414.167 281.838 412.866 280.975 411.901 279.864C410.951 278.753 410.476 277.261 410.476 275.39C410.476 273.65 410.98 272.144 411.989 270.873C413.012 269.601 414.35 268.614 416.002 267.912C417.654 267.21 419.445 266.859 421.375 266.859C422.939 266.859 424.475 267.108 425.98 267.605C427.486 268.087 428.817 268.796 429.972 269.732C431.127 270.668 431.96 271.808 432.472 273.153L430.213 273.965C429.862 272.956 429.226 272.101 428.305 271.399C427.384 270.697 426.309 270.163 425.081 269.798C423.868 269.432 422.632 269.25 421.375 269.25C419.869 269.235 418.466 269.491 417.165 270.017C415.878 270.529 414.833 271.245 414.029 272.166C413.239 273.087 412.844 274.162 412.844 275.39C412.844 276.808 413.217 277.905 413.963 278.68C414.708 279.454 415.724 280.039 417.011 280.434C418.298 280.814 419.752 281.158 421.375 281.465C423.305 281.801 425.096 282.32 426.748 283.022C428.415 283.709 429.752 284.63 430.761 285.785C431.785 286.925 432.296 288.343 432.296 290.039C432.296 291.765 431.785 293.27 430.761 294.557C429.752 295.829 428.422 296.816 426.77 297.518C425.118 298.219 423.32 298.57 421.375 298.57Z" fill="#FA4402"/>
<path fill-rule="evenodd" clip-rule="evenodd" d="M99.8098 205.528C99.7897 204.207 99.4422 202.661 98.7535 201.114C97.1712 197.56 94.3871 195.348 92.535 196.172C90.6829 196.997 90.4641 200.546 92.0464 204.1C92.6254 205.401 93.3655 206.522 94.1619 207.38C85.2905 210.976 79.3906 217.001 79.0186 224.099C78.3781 236.321 94.3718 247.094 114.741 248.161C135.111 249.229 152.143 240.186 152.784 227.965C153.218 219.684 146.015 212.068 134.989 207.685C135.604 206.813 136.161 205.697 136.572 204.432C137.652 201.106 137.315 198.016 135.819 197.53C134.323 197.044 132.235 199.346 131.154 202.672C130.754 203.904 130.548 205.104 130.523 206.151C126.383 204.938 121.842 204.153 117.061 203.902C110.882 203.578 105.01 204.185 99.8098 205.528ZM122.667 232.322C126.273 232.07 128.888 227.436 128.505 221.972C128.123 216.508 124.89 212.283 121.283 212.535C117.676 212.788 115.062 217.422 115.444 222.885C115.826 228.349 119.06 232.574 122.667 232.322ZM142.358 222.767C142.168 226.377 140.376 229.219 138.353 229.113C136.331 229.007 134.845 225.994 135.034 222.383C135.223 218.772 137.016 215.93 139.038 216.036C141.061 216.142 142.547 219.156 142.358 222.767Z" fill="#FA4402"/>
<path d="M100.47 301.826C108.969 303.478 118.119 293.187 120.908 278.839C123.697 264.492 119.068 251.522 110.569 249.87C102.07 248.218 92.9198 258.509 90.131 272.857C87.3421 287.204 91.9711 300.174 100.47 301.826Z" fill="#FA4402"/>
<path d="M122.667 232.322C126.273 232.07 128.888 227.436 128.505 221.972C128.123 216.508 124.89 212.283 121.283 212.535C117.676 212.788 115.062 217.422 115.444 222.885C115.826 228.349 119.06 232.574 122.667 232.322Z" fill="white"/>
<path d="M142.358 222.767C142.168 226.377 140.376 229.219 138.353 229.113C136.331 229.007 134.845 225.994 135.034 222.383C135.223 218.772 137.016 215.93 139.038 216.036C141.061 216.142 142.547 219.156 142.358 222.767Z" fill="white"/>
</svg>
