<svg width="512" height="512" viewBox="0 0 512 512" fill="none" xmlns="http://www.w3.org/2000/svg">
<path fill-rule="evenodd" clip-rule="evenodd" d="M204.98 118.209C204.916 114.021 203.814 109.119 201.631 104.215C196.614 92.9471 187.787 85.9321 181.914 88.5467C176.042 91.1613 175.348 102.415 180.365 113.683C182.201 117.807 184.547 121.361 187.072 124.082C158.945 135.483 140.238 154.586 139.059 177.09C137.028 215.841 187.738 249.999 252.323 253.383C316.908 256.768 370.91 228.098 372.941 189.347C374.317 163.091 351.48 138.944 316.521 125.049C318.469 122.285 320.235 118.744 321.538 114.733C324.964 104.188 323.897 94.3898 319.153 92.8486C314.41 91.3074 307.787 98.6066 304.361 109.152C303.091 113.06 302.438 116.865 302.361 120.186C289.233 116.339 274.837 113.849 259.677 113.054C240.086 112.027 221.468 113.95 204.98 118.209ZM295.963 170.348C297.175 187.672 288.886 202.365 277.45 203.164C266.014 203.964 255.762 190.568 254.55 173.244C253.339 155.92 261.628 141.228 273.063 140.428C284.499 139.629 294.752 153.024 295.963 170.348ZM327.187 192.988C333.599 193.324 339.284 184.316 339.884 172.867C340.484 161.418 335.772 151.864 329.36 151.528C322.948 151.192 317.263 160.201 316.663 171.65C316.063 183.099 320.775 192.652 327.187 192.988Z" fill="#FA4402"/>
<path d="M207.073 423.534C234.02 428.772 263.033 396.141 271.875 350.651C280.718 305.161 266.041 264.038 239.094 258.8C212.147 253.562 183.134 286.193 174.292 331.683C165.45 377.173 180.126 418.296 207.073 423.534Z" fill="#FA4402"/>
<path d="M277.45 203.164C288.886 202.365 297.175 187.672 295.963 170.348C294.752 153.024 284.499 139.629 273.063 140.428C261.628 141.228 253.339 155.92 254.55 173.244C255.762 190.568 266.014 203.964 277.45 203.164Z" fill="white"/>
<path d="M339.884 172.867C339.284 184.316 333.599 193.324 327.187 192.988C320.775 192.652 316.063 183.099 316.663 171.65C317.263 160.201 322.948 151.192 329.36 151.528C335.772 151.864 340.484 161.418 339.884 172.867Z" fill="white"/>
</svg>
